REM GENRE "demos, samplers"
REM DATE 2022
REM COMMENT "ALLic for nnm-club"
PERFORMER "Various Artists"
TITLE "SACD-LAB Demo Disc [DTS 5.1 CD-DA]"
FILE "Various Artists - SACD-LAB Demo Disc [DTS 5.1 CD-DA].wav" WAVE
  TRACK 01 AUDIO
    TITLE "Elektro kardiogramm"
    PERFORMER "KRAFTWERK"
    INDEX 01 00:00:00
  TRACK 02 AUDIO
    TITLE "Windswept"
    PERFORMER "BRYAN FERRY"    
    INDEX 01 04:34:03
  TRACK 03 AUDIO
    TITLE "Pierre Petit: concerto for organ"
    PERFORMER "GILLIAN WEIR"    
    INDEX 01 09:05:09
  TRACK 04 AUDIO
    TITLE "Kiss the Rain"
    PERFORMER "BILLIE MYERS"    
    INDEX 01 14:33:18
  TRACK 05 AUDIO
    TITLE "My heart will go on"
    PERFORMER "CELINE DION"    
    INDEX 01 19:04:12
  TRACK 06 AUDIO
    TITLE "Better Than Anything"
    PERFORMER "NATALIE COLE & DIANA KRALL"    
    INDEX 01 23:43:12
  TRACK 07 AUDIO
    TITLE "Zona Desperata"
    PERFORMER "AL DI MEOLA"    
    INDEX 01 27:17:24
  TRACK 08 AUDIO
    TITLE "Home Computer"
    PERFORMER "KRAFTWERK"    
    INDEX 01 36:40:15
  TRACK 09 AUDIO
    TITLE "Nothing Else Matters"
    PERFORMER "METALLICA"    
    INDEX 01 42:40:09
  TRACK 10 AUDIO
    TITLE "Blow X Blow"
    PERFORMER "MOLOKO"    
    INDEX 01 49:05:30
  TRACK 11 AUDIO
    TITLE "J'Aime J'Aime Pas"
    PERFORMER "ZAZIE"    
    INDEX 01 52:19:33
  TRACK 12 AUDIO
    TITLE "Prospero's Books: Miranda"
    PERFORMER "MICHAEL NYMAN"    
    INDEX 01 56:08:30